<svg width="50" height="50" viewBox="0 0 50 50" fill="none" xmlns="http://www.w3.org/2000/svg">
<path d="M23.7597 26.896V27.7705C22.6388 28.0577 21.6243 28.867 21.4168 30.2101C21.3015 31.3114 21.5365 33.2359 24.4327 33.7547C26.1249 33.992 26.353 34.7454 26.353 35.4499C26.3522 35.8375 26.2035 36.1503 25.9105 36.3792C25.6127 36.6124 25.1758 36.7434 24.6725 36.7636C24.6282 36.7558 24.5877 36.737 24.5411 36.737C24.4949 36.737 24.4549 36.7556 24.4109 36.7633C23.4154 36.7198 22.8024 36.1407 22.729 35.1478C22.697 34.7175 22.3171 34.3895 21.8929 34.4265C21.4625 34.4581 21.1391 34.8327 21.1711 35.2631C21.2875 36.8387 22.2979 37.9627 23.7598 38.2539V39.0877C23.7598 39.5191 24.1093 39.8689 24.5411 39.8689C24.9729 39.8689 25.3223 39.5191 25.3223 39.0877V38.2631C25.9162 38.1608 26.4461 37.9443 26.8734 37.6099C27.544 37.0857 27.914 36.3197 27.9156 35.4515C27.9156 34.4109 27.4914 32.6053 24.6792 32.212C23.1304 31.9343 22.8764 31.276 22.9656 30.4111C23.0975 29.5593 24.0421 29.1645 24.8332 29.2171C25.1232 29.2374 26.0707 29.3758 26.0829 30.302C26.089 30.7297 26.4377 31.0726 26.8642 31.0726C26.8672 31.0726 26.8711 31.0726 26.8749 31.0726C27.306 31.0665 27.6515 30.7121 27.6454 30.2806C27.6272 28.9445 26.7057 27.957 25.3223 27.7147V26.8959C25.3223 26.4645 24.9729 26.1146 24.5411 26.1146C24.1093 26.1146 23.7597 26.4645 23.7597 26.896Z" fill="black"/>
<path d="M13.4355 32.9919C13.4355 39.1175 18.4176 44.1014 24.5416 44.1014C30.6673 44.1014 35.6508 39.1175 35.6508 32.9919C35.6508 26.8677 30.6673 21.8854 24.5416 21.8854C18.4175 21.8854 13.4355 26.8677 13.4355 32.9919ZM34.0883 32.9919C34.0883 38.2562 29.8059 42.5389 24.5416 42.5389C19.2796 42.5389 14.998 38.2562 14.998 32.9919C14.998 27.7291 19.2797 23.4479 24.5416 23.4479C29.8059 23.4479 34.0883 27.7291 34.0883 32.9919Z" fill="black"/>
<path d="M49.0882 6.10473C45.9938 1.43777 38.2506 0.325038 32.965 2.21371C28.5369 3.79449 26.2006 7.07129 26.5037 11.2263C25.8742 11.8343 25.3709 12.4855 24.9988 13.1691C24.6267 12.485 24.1235 11.8332 23.4941 11.2243C23.7961 7.0691 21.4585 3.79308 17.0303 2.21293C11.7454 0.325428 4.00463 1.44012 0.911657 6.10473C0.759079 6.33433 0.739235 6.6273 0.858219 6.87566C2.59088 10.4718 5.99892 12.9998 10.4537 13.9939C11.8209 14.299 13.2438 14.4451 14.6407 14.4451C17.6889 14.4451 20.6056 13.7443 22.5506 12.4845C23.6523 13.6004 24.2171 14.8212 24.2171 16.1213V17.2297C15.7079 17.4232 8.84158 24.3915 8.84158 32.9464C8.84158 41.6225 15.9003 48.6812 24.5764 48.6812C33.2525 48.6812 40.3105 41.6225 40.3105 32.9464C40.3105 24.6764 33.8938 17.891 25.7795 17.2725V16.1213C25.7795 14.8207 26.3447 13.6001 27.4479 12.485C29.3939 13.7448 32.3103 14.4451 35.3582 14.4451C36.7567 14.4451 38.1803 14.2986 39.5483 13.9931C44.0024 12.9986 47.4088 10.471 49.1415 6.87558C49.2606 6.6273 49.2408 6.33433 49.0882 6.10473ZM10.794 12.4688C8.07564 11.8622 4.4715 10.3513 2.47259 6.6041C5.32142 2.85918 11.9178 2.04738 16.5054 3.68465C18.5086 4.39926 21.6647 6.13519 21.9388 9.96652C18.546 7.67551 13.7334 6.70387 10.308 6.7959C9.87689 6.80699 9.53666 7.1659 9.54736 7.59738C9.55877 8.0216 9.90595 8.35801 10.3278 8.35801C10.3355 8.35801 10.3424 8.35801 10.3492 8.35762C14.2513 8.26113 18.5538 9.48777 21.2853 11.4206C18.9999 12.6706 14.943 13.3941 10.794 12.4688ZM38.7481 32.9464C38.7481 40.7612 32.3906 47.1188 24.5766 47.1188C16.7618 47.1188 10.4042 40.7612 10.4042 32.9464C10.4042 25.1317 16.7618 18.7741 24.5766 18.7741C32.3906 18.7741 38.7481 25.1317 38.7481 32.9464ZM39.2081 12.4684C35.0577 13.3943 31.0005 12.6711 28.7136 11.421C31.442 9.4891 35.7331 8.26527 39.6476 8.35769C40.0489 8.39512 40.438 8.02926 40.4495 7.59746C40.4602 7.16605 40.1199 6.80707 39.6888 6.79598C36.2742 6.70551 31.4531 7.67683 28.0585 9.9691C28.3305 6.13676 31.4869 4.40058 33.4899 3.68535C38.0775 2.04887 44.6769 2.85832 47.5273 6.60394C45.5284 10.35 41.9257 11.8614 39.2081 12.4684Z" fill="black"/>
</svg>
