<svg width="50" height="50" viewBox="0 0 50 50" fill="none" xmlns="http://www.w3.org/2000/svg">
<path d="M24.9714 15.5098C19.7186 15.5098 15.4453 19.7845 15.4453 25.0389C15.4453 30.2917 19.7185 34.565 24.9714 34.565C30.2243 34.565 34.4978 30.2918 34.4978 25.0389C34.4978 19.7845 30.2242 15.5098 24.9714 15.5098ZM24.9714 33.0025C20.5803 33.0025 17.0078 29.4304 17.0078 25.0389C17.0078 20.6459 20.5803 17.0723 24.9714 17.0723C29.3629 17.0723 32.9353 20.6459 32.9353 25.0389C32.9353 29.4304 29.3629 33.0025 24.9714 33.0025Z" fill="black"/>
<path d="M36.8632 40.8523H35.6128V33.2218C37.3802 30.9455 38.444 28.0969 38.444 24.9984C38.444 17.5857 32.4122 11.5555 24.9984 11.5555C23.7105 11.5555 22.4686 11.7481 21.2886 12.0878V9.14531H22.5418C22.8325 9.14531 23.0987 8.9843 23.2337 8.72719C23.3684 8.4693 23.3496 8.15883 23.1845 7.92L18.4818 1.11836C18.3356 0.907109 18.0957 0.78125 17.8389 0.78125C17.5826 0.78125 17.3423 0.907109 17.1965 1.11773L12.4914 7.91937C12.3259 8.15891 12.3072 8.46945 12.4418 8.72656C12.5769 8.98445 12.8432 9.14539 13.1338 9.14539H14.3869V16.776C12.6194 19.0519 11.5557 21.9003 11.5557 24.9985C11.5557 32.4127 17.586 38.4445 24.9982 38.4445C26.2862 38.4445 27.5282 38.2519 28.7084 37.9121V40.8523H27.4579C27.1676 40.8523 26.901 41.0134 26.766 41.2705C26.6313 41.5284 26.65 41.8388 26.8152 42.0777L31.5179 48.8816C31.6642 49.0929 31.9041 49.2188 32.1608 49.2188C32.4175 49.2188 32.6575 49.0929 32.8036 48.8816L37.506 42.0777C37.6711 41.8388 37.6899 41.5284 37.5552 41.2705C37.4201 41.0134 37.1535 40.8523 36.8632 40.8523ZM17.8389 2.93578L21.0517 7.58281H20.5073C20.0759 7.58281 19.7261 7.93227 19.7261 8.36406V12.6351C18.3266 13.2341 17.0579 14.0734 15.9495 15.0862V8.36406C15.9495 7.93227 15.5996 7.58281 15.1682 7.58281H14.6243L17.8389 2.93578ZM24.9983 36.882C18.4477 36.882 13.1182 31.5514 13.1182 24.9985C13.1182 18.4479 18.4478 13.118 24.9983 13.118C31.5508 13.118 36.8814 18.448 36.8814 24.9985C36.8815 31.5513 31.5509 36.882 24.9983 36.882ZM32.1608 47.0634L28.9477 42.4148H29.4897C29.9211 42.4148 30.271 42.0654 30.271 41.6336V37.3649C31.6715 36.7655 32.9411 35.9256 34.0502 34.912V41.6336C34.0502 42.0654 34.4 42.4148 34.8314 42.4148H35.3735L32.1608 47.0634Z" fill="black"/>
</svg>
