<svg width="50" height="50" viewBox="0 0 50 50" fill="none" xmlns="http://www.w3.org/2000/svg">
<path d="M8.82226 13.7024C8.17984 13.7024 7.81593 13.3774 7.77093 12.7609C7.73968 12.3314 7.37952 12.0087 6.93476 12.0392C6.50444 12.0705 6.18171 12.4451 6.21304 12.8754C6.29827 14.0409 7.01648 14.8839 8.06546 15.1595V15.5975C8.06546 16.0293 8.41491 16.3787 8.84671 16.3787C9.27851 16.3787 9.62796 16.0293 9.62796 15.5975V15.1618C10.7247 14.8941 11.4466 14.0823 11.4491 12.992C11.4491 12.181 11.1226 10.7741 8.96726 10.4705C7.93577 10.2844 7.89304 9.88234 7.93804 9.45125C8.01968 8.92406 8.64452 8.77602 9.0214 8.79664C9.27015 8.81422 9.68898 8.90805 9.69429 9.34211C9.70038 9.76937 10.0491 10.1127 10.4755 10.1127C10.4786 10.1127 10.4824 10.1127 10.4862 10.1127C10.9173 10.1066 11.2622 9.75258 11.2568 9.3207C11.2437 8.34211 10.5942 7.57547 9.62788 7.32273V6.95117C9.62788 6.51938 9.27843 6.16992 8.84663 6.16992C8.41484 6.16992 8.06538 6.51938 8.06538 6.95117V7.37523C7.2564 7.63336 6.54312 8.25102 6.38921 9.24914C6.29765 10.1082 6.47616 11.6089 8.71921 12.0133C9.88648 12.178 9.88648 12.6877 9.88648 12.9898C9.88499 13.6741 9.01069 13.7031 8.82226 13.7024Z" fill="#6664AC"/>
<path d="M28.6442 18.8087C24.7593 20.8175 23.2288 25.611 25.2331 29.4944C26.2044 31.378 27.8508 32.7697 29.8695 33.4136C30.6637 33.6669 31.4786 33.7928 32.2888 33.7928C33.5377 33.7928 34.7768 33.4945 35.9189 32.9055C39.8045 30.9005 41.3342 26.107 39.3292 22.2198C37.3233 18.3341 32.5268 16.8029 28.6442 18.8087ZM35.2024 31.517C33.6895 32.2974 31.9645 32.4409 30.344 31.9252C28.7235 31.4079 27.4013 30.2902 26.6216 28.778C25.0126 25.6599 26.2409 21.8109 29.3598 20.1973C32.4818 18.589 36.3301 19.8166 37.9406 22.9362C39.5504 26.0573 38.3221 29.9064 35.2024 31.517Z" fill="#6664AC"/>
<path d="M36.3333 13.2363C36.4867 13.3949 36.6912 13.4751 36.8956 13.4751C37.0909 13.4751 37.2862 13.4026 37.438 13.2561L44.8324 6.13024C45.143 5.83117 45.1521 5.3368 44.8522 5.02547C44.5532 4.71571 44.0588 4.70656 43.7475 5.00563L36.3531 12.1315C36.0427 12.4305 36.0335 12.9249 36.3333 13.2363Z" fill="#6664AC"/>
<path d="M43.3246 9.87549C42.091 9.87549 41.0869 11.0099 41.0869 12.4038C41.0869 13.7978 42.091 14.9322 43.3246 14.9322C44.5599 14.9322 45.5654 13.7978 45.5654 12.4038C45.5654 11.0099 44.5598 9.87549 43.3246 9.87549ZM43.3246 13.3698C42.9653 13.3698 42.6494 12.9181 42.6494 12.4039C42.6494 11.8897 42.9653 11.4381 43.3246 11.4381C43.6863 11.4381 44.0029 11.8897 44.0029 12.4039C44.0029 12.9181 43.6863 13.3698 43.3246 13.3698Z" fill="#6664AC"/>
<path d="M37.6134 8.21302C38.8471 8.21302 39.8512 7.07857 39.8512 5.68466C39.8512 4.29154 38.8471 3.15857 37.6134 3.15857C36.379 3.15857 35.375 4.29154 35.375 5.68466C35.375 7.07849 36.379 8.21302 37.6134 8.21302ZM37.6134 4.72107C37.9728 4.72107 38.2887 5.17123 38.2887 5.68466C38.2887 6.19888 37.9728 6.65052 37.6134 6.65052C37.2534 6.65052 36.9375 6.19888 36.9375 5.68466C36.9375 5.17115 37.2534 4.72107 37.6134 4.72107Z" fill="#6664AC"/>
<path d="M48.4817 41.639L44.1848 36.4968C43.235 35.3645 41.6609 35.0726 40.3858 35.6834L39.1983 34.2637C40.8067 32.9459 42.0081 31.1963 42.6551 29.1688C43.5393 26.3986 43.2914 23.4483 41.9577 20.8627C40.3941 17.8351 37.5975 15.8531 34.4962 15.2051C31.2836 9.89164 25.4897 6.60016 19.2764 6.60016C18.0562 6.60016 16.8387 6.7329 15.6458 6.98047C14.2212 4.70891 11.7016 3.19055 8.82789 3.19055C4.3907 3.19063 0.78125 6.80164 0.78125 11.2396C0.78125 13.4577 1.68273 15.4691 3.13836 16.9265C2.05297 19.2691 1.49609 21.7723 1.49609 24.3805C1.49609 34.185 9.47266 42.1616 19.2764 42.1616C24.0798 42.1616 28.7102 40.1881 32.0462 36.7428C32.1281 36.7447 32.2102 36.7523 32.2921 36.7523C34.0057 36.7523 35.707 36.3427 37.2741 35.5339C37.4949 35.42 37.7037 35.2903 37.9145 35.1632L39.188 36.6859C38.3632 37.832 38.3721 39.4331 39.3188 40.5693L43.618 45.7092C44.2451 46.4569 45.1454 46.8422 46.0525 46.8422C46.7712 46.8422 47.493 46.6003 48.085 46.1045C48.7327 45.5635 49.131 44.8006 49.2058 43.9552C49.2813 43.1091 49.0242 42.2867 48.4817 41.639ZM2.34375 11.2396C2.34375 7.66297 5.25281 4.75313 8.82797 4.75313C12.4054 4.75313 15.3152 7.66297 15.3152 11.2396C15.3152 14.817 12.4054 17.7269 8.82797 17.7269C5.25281 17.7269 2.34375 14.817 2.34375 11.2396ZM6.41094 34.2171C4.3143 31.4888 3.05859 28.0826 3.05859 24.3806C3.05859 22.1367 3.50508 19.9768 4.38617 17.9458C5.66016 18.7931 7.18664 19.2894 8.82797 19.2894C10.2634 19.2894 11.6094 18.9072 12.7776 18.246L18.1598 24.3L6.41094 34.2171ZM18.4952 40.5595C14.1305 40.35 10.2175 38.4066 7.42031 35.4105L18.4952 26.0613V40.5595ZM14.0634 17.3417C15.783 15.8643 16.8778 13.6792 16.8778 11.2396C16.8778 10.2488 16.6892 9.30336 16.3602 8.42602C17.3209 8.25172 18.2984 8.16274 19.2765 8.16274C24.5266 8.16274 29.4467 10.7408 32.4736 14.9732C30.7259 14.9392 28.9461 15.3246 27.2866 16.1805C25.224 17.2463 23.6517 18.8873 22.6498 20.8037L19.3771 23.3184L14.0634 17.3417ZM20.0577 40.5629V24.7656L21.6467 23.5447C21.1242 25.9354 21.3974 28.5135 22.6044 30.8517C23.938 33.4366 26.1986 35.347 28.9696 36.2312C29.3219 36.3438 29.6777 36.4312 30.0345 36.5071C27.2788 38.9488 23.7455 40.3822 20.0577 40.5629ZM36.5577 34.1454C34.3452 35.2875 31.8198 35.5012 29.4441 34.7427C27.0713 33.9852 25.135 32.3486 23.9929 30.1346C21.6354 25.5677 23.4345 19.9303 28.0037 17.569C32.5729 15.2092 38.2095 17.0098 40.5693 21.579C41.7114 23.7938 41.9235 26.3206 41.1666 28.6941C40.4091 31.0669 38.7726 33.0032 36.5577 34.1454ZM40.5182 39.5684C39.9491 38.8856 40.0391 37.8677 40.7188 37.3002L40.7204 37.2994C41.021 37.0476 41.3872 36.9248 41.7511 36.9248C42.2112 36.9248 42.6689 37.1201 42.9863 37.5L43.6055 38.241L41.1361 40.307L40.5182 39.5684ZM43.193 42.7651L42.1395 41.5047L44.6072 39.4398L45.6615 40.7016L43.193 42.7651ZM47.0833 44.9059C46.4027 45.4758 45.3865 45.3858 44.8159 44.7059L44.1955 43.9644L46.6639 41.901L47.2832 42.6422C47.5579 42.9695 47.6884 43.3868 47.6495 43.8171C47.6112 44.2459 47.4105 44.632 47.0833 44.9059Z" fill="#6664AC"/>
</svg>
