<svg width="50" height="50" viewBox="0 0 50 50" fill="none" xmlns="http://www.w3.org/2000/svg">
<path d="M38.5711 35.5751C38.4666 35.5751 38.3602 35.5545 38.2583 35.5095C37.8631 35.3362 37.6827 34.8762 37.8559 34.481C38.0283 34.0851 38.4937 33.8928 38.89 34.0659C39.2852 34.2391 39.471 34.687 39.2978 35.0822L39.2871 35.1066C39.1589 35.4004 38.872 35.5751 38.5711 35.5751Z" fill="#6664AC"/>
<path d="M31.0008 25.4844C30.8963 25.4844 30.7899 25.4631 30.688 25.4184C30.2927 25.2456 30.1124 24.7848 30.2856 24.3896C30.458 23.9947 30.9238 23.8018 31.3197 23.9749C31.7149 24.1477 31.9007 24.5963 31.7275 24.9915L31.7168 25.016C31.5887 25.3094 31.3018 25.4844 31.0008 25.4844Z" fill="#6664AC"/>
<path d="M16.3777 28.7552C15.376 28.5744 15.3344 28.1861 15.3775 27.771C15.4557 27.2651 16.058 27.1156 16.4246 27.1423C16.6649 27.1591 17.0689 27.2491 17.0746 27.6626C17.0807 28.0944 17.4229 28.44 17.8669 28.4332C18.2983 28.4271 18.6432 28.0723 18.6371 27.6412C18.6236 26.6777 17.9857 25.923 17.0365 25.6707V25.3135C17.0365 24.8821 16.6866 24.5322 16.2552 24.5322C15.8238 24.5322 15.474 24.8821 15.474 25.3135V25.7206C14.6768 25.9765 13.9793 26.5864 13.8283 27.5695C13.7387 28.4171 13.9138 29.898 16.1305 30.2978C17.2619 30.4564 17.2619 30.9501 17.2619 31.2446C17.2619 31.4124 17.2104 31.5459 17.1043 31.652C16.9293 31.826 16.6172 31.9259 16.2426 31.9259C16.2388 31.9259 16.235 31.9259 16.2312 31.9259C15.6098 31.9259 15.2577 31.6116 15.2135 31.0157C15.1814 30.5854 14.8061 30.2574 14.3765 30.2947C13.9462 30.3268 13.6235 30.7014 13.6555 31.1317C13.7407 32.2783 14.4461 33.1079 15.474 33.3821V33.8012C15.474 34.233 15.8238 34.5825 16.2552 34.5825C16.6866 34.5825 17.0365 34.233 17.0365 33.8012V33.3829C17.4953 33.2684 17.9014 33.0632 18.2075 32.7582C18.6111 32.3554 18.8244 31.8321 18.8244 31.2446C18.8244 30.4429 18.5025 29.052 16.3777 28.7552Z" fill="#6664AC"/>
<path d="M16.238 21.6099C11.874 21.6099 8.32324 25.1602 8.32324 29.5242C8.32324 33.889 11.8739 37.4397 16.238 37.4397C20.6021 37.4397 24.1527 33.889 24.1527 29.5242C24.1527 25.1603 20.602 21.6099 16.238 21.6099ZM16.238 35.8773C12.7354 35.8773 9.88574 33.0277 9.88574 29.5243C9.88574 26.0217 12.7354 23.1724 16.238 23.1724C19.7407 23.1724 22.5903 26.0217 22.5903 29.5243C22.5902 33.0277 19.7407 35.8773 16.238 35.8773Z" fill="#6664AC"/>
<path d="M46.7934 23.8972H41.6485V16.2316C41.6485 14.8942 40.5605 13.8062 39.2231 13.8062H21.4145C21.5123 13.7001 21.6095 13.5909 21.7049 13.4731C23.7316 10.9772 24.8776 6.23173 24.548 3.65603C24.4984 3.26619 24.1666 2.974 23.7733 2.974H8.32102C7.92773 2.974 7.59547 3.26658 7.54586 3.65681C7.21859 6.23439 8.3668 10.981 10.3935 13.4755C10.5213 13.6326 10.6516 13.7763 10.7834 13.9128C6.61602 14.8516 3.49125 18.5763 3.49125 23.0233V39.7042C1.725 40.091 0.78125 41.7793 0.78125 43.3792C0.78125 44.3192 1.08375 45.1981 1.63266 45.8542C2.27469 46.621 3.1875 47.0261 4.27242 47.0261H27.8244C29.3068 47.0261 30.2116 46.3929 30.7091 45.8619C30.7577 45.81 30.793 45.7485 30.8382 45.6941H46.7934C48.1308 45.6941 49.2188 44.6053 49.2188 43.2679V26.323C49.2188 24.9855 48.1308 23.8972 46.7934 23.8972ZM39.2231 15.3687C39.6988 15.3687 40.086 15.7559 40.086 16.2316V23.8972H37.687V21.436C37.687 21.0045 37.3371 20.6547 36.9057 20.6547C35.5652 20.6547 34.4746 19.5652 34.4746 18.2259C34.4746 17.7945 34.1248 17.4446 33.6934 17.4446H26.7396C26.1414 16.6449 25.423 15.942 24.6041 15.3687H39.2231ZM27.6855 19.0071H32.9888C33.303 20.5826 34.5482 21.827 36.1245 22.1405V23.8971H28.6057V23.0231C28.6056 21.5843 28.2691 20.2258 27.6855 19.0071ZM28.6056 32.4199C29.1264 32.0206 29.7537 31.7924 30.4153 31.7924C32.0702 31.7924 33.4167 33.139 33.4167 34.7938C33.4167 36.4487 32.0702 37.7952 30.4153 37.7952C29.7523 37.7952 29.1251 37.5678 28.6056 37.1706V32.4199ZM9.05266 4.53642H23.042C23.0667 6.83783 22.054 10.5648 20.4922 12.4881C19.8884 13.2317 19.2772 13.6329 18.7374 13.6783H16.8297V10.3408C16.8297 9.90939 16.4798 9.55955 16.0484 9.55955C15.617 9.55955 15.2672 9.90939 15.2672 10.3408V13.6783H13.4115C12.8132 13.627 12.2059 13.2278 11.6062 12.49C10.0441 10.5679 9.02938 6.83978 9.05266 4.53642ZM29.5692 44.7937C29.1584 45.2316 28.5549 45.4635 27.8244 45.4635H4.2725C2.84883 45.4636 2.34375 44.3406 2.34375 43.3792C2.34375 42.3218 2.94727 41.1842 4.2725 41.1842H5.81633C6.24773 41.1842 6.59758 40.8348 6.59758 40.403C6.59758 39.9712 6.24773 39.6217 5.81633 39.6217H5.05375V23.0232C5.05375 18.732 8.54461 15.2409 12.8357 15.2409H19.2581C23.5508 15.2409 27.0431 18.7321 27.0431 23.0232V24.6785V39.6217H26.2802C25.8487 39.6217 25.4989 39.9712 25.4989 40.403C25.4989 40.8348 25.8487 41.1842 26.2802 41.1842H27.8244C29.4185 41.1842 30.1323 42.2531 30.1323 43.312C30.1323 43.8797 29.9324 44.4061 29.5692 44.7937ZM30.3967 40.4923C29.9239 40.0979 29.3295 39.8051 28.6056 39.6843V38.9729C29.1718 39.2185 29.7828 39.3577 30.4153 39.3577C32.9319 39.3577 34.9792 37.31 34.9792 34.7938C34.9792 32.2777 32.9319 30.2299 30.4153 30.2299C29.7833 30.2299 29.1723 30.3699 28.6056 30.6164V29.0985H40.559C40.8733 30.674 42.1184 31.9176 43.6947 32.2319V37.3588C42.1184 37.6731 40.8734 38.9167 40.559 40.4922L30.3967 40.4923ZM47.6562 43.2678C47.6562 43.7439 47.2691 44.1315 46.7934 44.1315H31.5994C31.6569 43.8652 31.6948 43.5927 31.6948 43.3121C31.6948 42.886 31.6192 42.4599 31.477 42.0548H41.2635C41.6949 42.0548 42.0448 41.7053 42.0448 41.2735C42.0448 39.9345 43.1354 38.8451 44.4759 38.8451C44.9073 38.8451 45.2571 38.4956 45.2571 38.0638V31.527C45.2571 31.0952 44.9073 30.7457 44.4759 30.7457C43.1354 30.7457 42.0448 29.6563 42.0448 28.3173C42.0448 27.8855 41.6949 27.536 41.2635 27.536H28.6056V25.4597H46.7934C47.2691 25.4597 47.6562 25.8469 47.6562 26.323V43.2678Z" fill="#6664AC"/>
</svg>
